<?xml version="1.0" standalone="no"?>
<!DOCTYPE svg PUBLIC "-//W3C//DTD SVG 20010904//EN"
 "http://www.w3.org/TR/2001/REC-SVG-20010904/DTD/svg10.dtd">
<svg version="1.0" xmlns="http://www.w3.org/2000/svg"
 width="1024.000000pt" height="1024.000000pt" viewBox="0 0 1024.000000 1024.000000"
 preserveAspectRatio="xMidYMid meet">
<metadata>
Created by potrace 1.14, written by Peter Selinger 2001-2017
</metadata>
<g transform="translate(0.000000,1024.000000) scale(0.100000,-0.100000)"
fill="#000000" stroke="none">
<path d="M9860 10210 c0 -5 5 -10 11 -10 5 0 7 5 4 10 -3 6 -8 10 -11 10 -2 0
-4 -4 -4 -10z"/>
<path d="M10080 10189 c0 -5 5 -7 10 -4 6 3 10 8 10 11 0 2 -4 4 -10 4 -5 0
-10 -5 -10 -11z"/>
<path d="M8340 9820 c0 -5 5 -10 11 -10 5 0 7 5 4 10 -3 6 -8 10 -11 10 -2 0
-4 -4 -4 -10z"/>
<path d="M8505 9791 c-3 -5 -2 -12 3 -15 5 -3 9 1 9 9 0 17 -3 19 -12 6z"/>
<path d="M9655 9700 c3 -5 8 -10 11 -10 2 0 4 5 4 10 0 6 -5 10 -11 10 -5 0
-7 -4 -4 -10z"/>
<path d="M1465 9650 c20 -22 31 -20 22 5 -4 8 -14 15 -23 15 -16 0 -16 -2 1
-20z"/>
<path d="M9575 9599 c-4 -6 -5 -12 -2 -15 2 -3 7 2 10 11 7 17 1 20 -8 4z"/>
<path d="M1580 9511 c0 -6 4 -13 10 -16 6 -3 7 1 4 9 -7 18 -14 21 -14 7z"/>
<path d="M80 9476 c0 -2 7 -7 16 -10 8 -3 12 -2 9 4 -6 10 -25 14 -25 6z"/>
<path d="M7860 9450 c-12 -7 -12 -12 -3 -21 10 -10 14 -9 19 5 8 22 2 27 -16
16z"/>
<path d="M7734 9188 c-3 -5 -1 -15 6 -21 10 -9 11 -9 5 1 -5 9 -2 12 8 10 9
-2 17 1 19 6 4 13 -31 16 -38 4z"/>
<path d="M5957 8865 c-4 -8 -2 -17 3 -20 6 -4 10 3 10 14 0 25 -6 27 -13 6z"/>
<path d="M8725 8741 c-3 -5 0 -13 6 -16 5 -4 8 -13 5 -21 -3 -8 -1 -14 4 -14
6 0 10 14 10 30 0 29 -13 40 -25 21z"/>
<path d="M4975 8666 c-5 -3 -73 -10 -150 -16 -201 -16 -338 -55 -475 -135 -47
-28 -265 -132 -322 -154 -31 -12 -82 -25 -112 -28 -31 -3 -56 -9 -56 -13 0 -4
-39 -13 -86 -20 -87 -12 -236 -50 -270 -68 -11 -5 -39 -12 -63 -16 -240 -37
-580 -204 -744 -367 -21 -21 -48 -39 -60 -41 -12 -2 -23 -11 -25 -21 -6 -28
-75 -95 -102 -99 -18 -2 -26 -11 -30 -31 -3 -17 -15 -34 -29 -41 -13 -7 -36
-35 -51 -62 l-26 -49 -59 -3 c-33 -2 -64 -7 -70 -11 -5 -5 -23 -11 -39 -15
-17 -4 -62 -26 -100 -49 -39 -23 -102 -52 -141 -65 -38 -14 -77 -30 -85 -37
-8 -7 -33 -22 -55 -33 -23 -11 -47 -32 -54 -46 -8 -14 -24 -29 -35 -32 -25 -8
-129 -84 -135 -98 -2 -5 -30 -37 -61 -71 -94 -101 -191 -286 -235 -448 -17
-65 -21 -70 -71 -102 -28 -18 -55 -38 -59 -44 -3 -6 -32 -30 -63 -53 -82 -61
-273 -256 -321 -328 -36 -54 -94 -167 -116 -225 -33 -88 -41 -376 -14 -502 5
-26 14 -86 20 -133 9 -76 15 -94 60 -168 56 -93 55 -71 14 -212 -27 -91 -16
-215 28 -320 80 -193 207 -418 279 -495 21 -22 38 -47 38 -55 0 -14 94 -105
129 -124 27 -15 61 -48 56 -56 -7 -11 143 -93 194 -107 25 -7 74 -13 108 -13
49 0 64 -4 72 -18 16 -30 152 -98 246 -123 73 -20 114 -24 220 -24 72 0 169 4
216 9 l87 9 16 -55 c30 -105 203 -407 241 -422 7 -2 23 -22 35 -43 39 -67 249
-235 350 -280 30 -14 73 -34 95 -45 116 -57 288 -106 460 -130 113 -16 385
-17 445 -1 62 16 140 30 237 42 85 10 159 36 298 101 44 21 100 45 125 55 25
9 66 37 92 61 56 52 73 54 159 15 101 -45 170 -62 304 -76 33 -3 76 -8 95 -10
19 -2 40 -4 47 -4 6 -1 19 -25 28 -53 10 -29 32 -79 51 -111 19 -32 34 -62 34
-66 0 -4 9 -16 19 -25 11 -10 28 -39 39 -64 12 -27 45 -71 77 -102 31 -30 60
-59 65 -65 5 -5 27 -31 50 -57 31 -35 69 -60 163 -107 67 -33 132 -69 144 -81
16 -14 36 -20 68 -20 25 0 62 -7 83 -16 47 -20 262 -41 502 -50 265 -9 375 7
514 77 192 96 222 114 294 178 39 36 80 65 90 66 10 1 32 11 48 22 16 11 37
23 47 26 9 4 17 13 17 20 0 7 11 19 24 27 14 7 27 24 31 37 5 22 10 24 35 19
34 -6 71 5 98 31 11 10 36 32 57 48 100 78 146 124 170 167 8 14 31 36 52 49
64 39 84 68 76 109 -5 28 42 140 59 140 6 0 20 -7 30 -17 17 -15 18 -15 18 6
0 12 -7 29 -16 38 -11 12 -14 26 -9 55 5 30 3 44 -10 58 -16 17 -14 19 42 30
40 9 107 11 220 6 164 -7 258 4 316 36 12 7 28 13 34 14 23 4 183 87 183 94 0
5 20 20 45 34 25 15 45 31 45 36 0 4 20 32 45 61 24 28 53 71 64 95 11 23 24
45 29 48 5 3 26 47 47 98 48 118 80 190 111 251 13 27 24 55 24 62 0 7 16 30
35 51 65 72 82 124 88 271 2 52 -2 65 -20 85 -13 13 -29 44 -37 69 -26 83 -85
193 -141 264 -16 21 -41 74 -56 118 -25 75 -26 84 -14 125 8 24 22 54 33 66
20 22 45 104 36 118 -3 5 4 25 15 44 30 50 29 133 -1 171 -37 46 -51 75 -59
123 -5 25 -18 97 -29 160 -12 63 -24 147 -26 185 -3 39 -17 113 -31 165 -54
204 -57 225 -28 214 13 -5 -12 51 -47 106 -9 14 -19 40 -23 59 -5 22 -24 51
-56 81 -27 26 -49 51 -49 56 0 21 -101 105 -170 142 -70 37 -77 43 -107 103
-17 35 -32 73 -32 83 -1 27 -39 151 -63 207 -26 61 -176 215 -218 224 -16 4
-32 11 -35 16 -8 12 -111 59 -145 66 -17 3 -46 -3 -75 -16 l-48 -21 -31 36
c-43 52 -96 74 -185 74 l-73 0 7 33 c23 107 13 160 -54 276 -20 34 -41 73 -48
85 -18 32 -112 129 -173 178 -121 97 -370 156 -665 158 l-100 1 -27 40 c-16
21 -28 46 -28 54 0 30 -48 110 -91 153 -64 63 -105 88 -199 122 -133 48 -232
53 -614 28 -236 -14 -256 -10 -297 70 -15 30 -29 56 -31 58 -2 2 -74 8 -159
14 -84 5 -164 12 -176 14 -32 7 -346 16 -358 12z"/>
<path d="M7374 8116 c11 -9 31 -16 45 -15 24 1 24 2 -5 8 -17 4 -37 11 -45 15
-8 4 -5 0 5 -8z"/>
<path d="M10100 3129 c0 -5 -4 -7 -10 -4 -5 3 -10 1 -10 -4 0 -6 7 -11 15 -11
8 0 15 7 15 15 0 8 -2 15 -5 15 -3 0 -5 -5 -5 -11z"/>
<path d="M615 1210 c4 -6 11 -8 16 -5 14 9 11 15 -7 15 -8 0 -12 -5 -9 -10z"/>
<path d="M426 1101 c-4 -7 -5 -15 -2 -18 9 -9 19 4 14 18 -4 11 -6 11 -12 0z"/>
<path d="M396 1077 c3 -10 9 -15 12 -12 3 3 0 11 -7 18 -10 9 -11 8 -5 -6z"/>
<path d="M9150 1050 c0 -5 5 -10 10 -10 6 0 10 5 10 10 0 6 -4 10 -10 10 -5 0
-10 -4 -10 -10z"/>
<path d="M7420 845 c0 -17 31 -28 44 -15 12 12 5 19 -23 25 -13 2 -21 -1 -21
-10z"/>
<path d="M7551 684 c0 -11 3 -14 6 -6 3 7 2 16 -1 19 -3 4 -6 -2 -5 -13z"/>
</g>
</svg>
